<svg width="200" height="275" viewBox="0 0 200 275" fill="none" xmlns="http://www.w3.org/2000/svg">
<path d="M200 50C200 77.6142 155.228 100 100 100C44.7715 100 0 77.6142 0 50C0 22.3858 44.7715 0 100 0C155.228 0 200 22.3858 200 50Z" fill="#FECDDC"/>
<path d="M0 50H200V200H0V50Z" fill="#FECDDC"/>
<path d="M75 200H125V250H75V200Z" fill="#FFD5AF"/>
<path d="M125 250C125 263.807 113.807 275 100 275C86.1929 275 75 263.807 75 250C75 236.193 86.1929 225 100 225C113.807 225 125 236.193 125 250Z" fill="#FFD5AF"/>
<path d="M92.3636 63.9091H103.636V125.545C103.636 131.909 102.136 137.591 99.1364 142.591C96.1667 147.561 91.9697 151.485 86.5455 154.364C81.1212 157.212 74.7576 158.636 67.4545 158.636C60.1515 158.636 53.7879 157.212 48.3636 154.364C42.9394 151.485 38.7273 147.561 35.7273 142.591C32.7576 137.591 31.2727 131.909 31.2727 125.545V63.9091H42.5455V124.636C42.5455 129.182 43.5455 133.227 45.5455 136.773C47.5455 140.288 50.3939 143.061 54.0909 145.091C57.8182 147.091 62.2727 148.091 67.4545 148.091C72.6364 148.091 77.0909 147.091 80.8182 145.091C84.5455 143.061 87.3939 140.288 89.3636 136.773C91.3636 133.227 92.3636 129.182 92.3636 124.636V63.9091Z" fill="#CC839A"/>
<path d="M168.545 63.9091V157H157.273V63.9091H168.545Z" fill="#CC839A"/>
</svg>
